<svg xmlns="http://www.w3.org/2000/svg" viewBox="0 0 464.9 283.5"><path d="m325.8 57.5-38.3 143.1V57.1h29.6c2.1 0 4.1.1 6.2.2.8.1 1.6.1 2.5.2M136.2 54c-1.4-.1-2.8-.1-4.2-.1h-27.9v87.5h8.9L136.3 54zm-96.5 81.4L0 283.5h39.7zm183.4 25.7c-2.7 2.8-5.6 5.5-8.7 8-.1.1-.3.2-.4.3l-30.6 114.1h39.7z" style="fill:#E5E5E5"/><path d="M317.9 226.4h-30.4V57.1h29.6c2.1 0 4.1.1 6.2.2 40.7 2.8 74.8 32.8 74.8 84.4 0 53.1-38.9 84.7-80.2 84.7m-186.7-85.1h-27.1V53.9H132c1.4 0 2.8 0 4.2.1 30.2 1.4 47.2 17.6 47.2 42 0 28.3-19.8 45.3-52.2 45.3M317.9 0h-94.8v29.7C203.2 10.1 172.4.2 134.9 0H39.7v283.5h65.6v-89.9h29.2c32.3 0 60-8.5 80-24.5 3.1-2.5 6-5.1 8.7-8v122.4H318c84.2 0 147-57.5 147-142.5-.1-86.3-59.7-141-147.1-141" style="fill:#E5E5E5"/></svg>
