<svg width="124" height="23" viewBox="0 0 124 23" fill="none" xmlns="http://www.w3.org/2000/svg">
<g clip-path="url(#clip0_4_63)">
<path d="M20.9767 0.0168457H1.29167C0.585556 0.0168457 0 0.591846 0 1.28523V4.51538C0 5.20876 0.585556 5.78376 1.29167 5.78376H9.98889C10.9017 5.78376 11.4528 6.79846 10.9189 7.52567L1.37778 21.072C0.792222 21.9176 1.395 23.0507 2.42833 23.0507H22.1478C22.8539 23.0507 23.4394 22.4757 23.4394 21.7823V18.5521C23.4394 17.8588 22.8539 17.2838 22.1478 17.2838H13.2611C12.3483 17.2838 11.7972 16.2691 12.3311 15.5249L22.01 1.99552C22.63 1.18376 22.0272 0.0168457 20.9767 0.0168457Z" fill="#E5E5E5"/>
<path d="M37.0281 0.0508514C29.812 -0.507237 23.8186 5.37806 24.387 12.4641C24.8348 18.045 29.4331 22.5604 35.1164 23.0001C42.3325 23.5582 48.3259 17.6729 47.7575 10.5869C47.327 5.006 42.7286 0.490557 37.0281 0.0508514Z" fill="#E5E5E5"/>
<path d="M63.1707 0.0508514C55.9546 -0.507237 49.9612 5.37806 50.5296 12.4641C50.9773 18.045 55.5757 22.5604 61.259 23.0001C68.4751 23.5582 74.4684 17.6729 73.9001 10.5869C73.4696 5.006 68.8712 0.490557 63.1707 0.0508514Z" fill="#E5E5E5"/>
<path d="M122.364 0.0168457H102.214C101.301 0.0168457 100.561 0.744051 100.561 1.64038V11.5507C100.561 17.9095 105.813 23.0676 112.289 23.0676C118.764 23.0676 124.017 17.9095 124.017 11.5507V1.64038C124.034 0.744051 123.294 0.0168457 122.381 0.0168457" fill="#E5E5E5"/>
<path d="M75.451 0.0169778C74.366 0.0169778 73.6427 1.15007 74.1249 2.09712L84.3032 22.0699C84.9405 23.3552 86.8177 23.3552 87.4721 22.0699L97.7193 2.09712C98.2016 1.13315 97.4955 -0.0168457 96.3932 -0.0168457H75.4682L75.451 0.0169778Z" fill="#E5E5E5"/>
</g>
<defs>
<clipPath id="clip0_4_63">
<rect width="124" height="23" fill="#E5E5E5"/>
</clipPath>
</defs>
</svg>
