<svg width="45" height="40" viewBox="0 0 45 40" fill="none" xmlns="http://www.w3.org/2000/svg">
<path fill-rule="evenodd" clip-rule="evenodd" d="M34.9386 1.13757C35.1577 0.726579 35.6664 0.572184 36.0742 0.793127C36.4821 1.01407 36.6352 1.52693 36.4163 1.9381C36.1973 2.34926 33.5339 6.37022 33.287 7.80848C33.04 9.24674 33.2576 10.0127 33.6154 10.5963C33.9731 11.1799 34.4282 12.0868 35.7176 12.2952C37.007 12.5037 42.414 12.1693 42.8768 12.1573C43.3396 12.1454 43.7128 12.466 43.725 12.9325C43.7371 13.3991 43.3713 13.7872 42.9084 13.7993C42.4455 13.8113 35.1826 13.6355 34.0812 14.0288C32.9797 14.422 32.0623 14.7664 30.9129 15.4395C29.7636 16.1126 28.0856 18.0117 27.06 19.4903C26.0344 20.9688 25.7183 21.657 25.4464 22.5181C25.1744 23.3791 24.9315 24.2205 24.96 25.7003C24.9885 27.18 25.7418 29.6303 26.2553 30.837C26.7688 32.0437 30.1402 37.169 30.3836 37.5661C30.627 37.9631 30.505 38.4841 30.1112 38.7295C29.7174 38.9748 29.2006 38.8515 28.957 38.4545C28.7134 38.0574 25.3574 31.8179 24.4752 31.1487C23.593 30.4795 23.6834 30.5161 22.8165 30.5328C21.9496 30.5495 20.7851 31.4801 20.3003 32.1737C19.8155 32.8674 17.2084 37.976 16.9892 38.3872C16.7701 38.7984 16.2614 38.9527 15.8535 38.7317C15.4456 38.5106 15.2924 37.9979 15.5115 37.5867C15.7306 37.1756 19.468 30.5586 19.827 29.4878C20.186 28.417 20.5173 27.2822 20.4993 26.3499C20.4814 25.4176 19.9076 23.8997 19.4241 22.9154C18.9406 21.9311 17.4781 19.7329 17.2644 19.395C17.0507 19.057 17.096 18.9939 16.7143 18.5314C16.3325 18.069 15.5638 16.8626 13.8653 15.768C12.1668 14.6733 11.8904 14.8383 10.2105 14.711C8.5306 14.5838 6.69122 14.6528 5.86241 14.6687C5.29256 14.6798 2.01527 14.8659 1.5524 14.8778C1.08954 14.8898 0.704351 14.521 0.692362 14.0544C0.680373 13.5878 1.04613 13.1997 1.50892 13.1877C1.97172 13.1756 7.66813 13.3507 8.7687 12.9977C9.86927 12.6447 10.2733 12.6332 10.9946 11.8775C11.7159 11.1217 11.5118 10.912 11.2408 9.57521C10.9698 8.23842 7.84108 4.03366 7.59784 3.63658C7.3546 3.23951 7.47655 2.71843 7.87029 2.47317C8.26403 2.22791 8.78085 2.35133 9.02446 2.74818C9.26806 3.14503 11.757 7.91708 12.7858 8.87994C13.8145 9.84281 15.5886 11.0128 16.5786 11.4882C17.5686 11.9635 18.6507 12.4104 19.398 12.7203C20.1454 13.0301 25.6245 12.742 26.2905 12.5407C26.9566 12.3394 27.8013 11.9506 28.5958 11.2567C29.3902 10.5627 30.3457 9.35915 31.141 8.26046C31.9364 7.16178 34.7194 1.54857 34.9386 1.13757ZM19.9344 14.3976C19.2621 14.5918 18.6341 15.0523 18.3368 15.6818C18.0395 16.3113 18.1717 17.159 18.4858 18.1714C18.7999 19.1839 20.4257 21.7331 20.9099 22.1227C21.394 22.5123 21.8683 22.7265 22.3851 22.6497C22.9018 22.5729 23.5239 22.124 24.0914 21.4873C24.659 20.8506 26.4256 17.5169 26.6315 16.7215C26.8375 15.926 26.9834 15.5152 26.5847 15.0545C26.1859 14.5937 25.5232 14.3753 24.8976 14.2684C24.2719 14.1616 20.6067 14.2034 19.9344 14.3976Z" fill="#5DA224" stroke="#5DA224" stroke-width="1.38415"/>
</svg>
