<svg width="224" height="127" viewBox="0 0 224 127" fill="none" xmlns="http://www.w3.org/2000/svg">
<path d="M89.7843 82.2258V53.9729H108.066V58.9587H95.5179V65.5649H105.573V70.4676H95.5179V77.24H108.066V82.2258H89.7843ZM113.621 82.2258V53.9729H119.355V82.2258H113.621ZM136.727 73.9992H132.074V82.2258H126.34V53.9729H136.727C143.431 53.9729 146.782 57.2414 146.782 63.7783C146.782 67.0745 145.924 69.6089 144.206 71.3817C142.517 73.1267 140.024 73.9992 136.727 73.9992ZM132.074 69.0965H136.686C139.539 69.0965 140.965 67.3238 140.965 63.7783C140.965 62.0333 140.619 60.7868 139.927 60.039C139.234 59.2634 138.154 58.8756 136.686 58.8756H132.074V69.0965ZM169.545 81.7688C166.609 82.4059 163.964 82.7244 161.609 82.7244C159.255 82.7244 157.371 82.4335 155.959 81.8519C154.546 81.2702 153.438 80.3423 152.635 79.0681C151.832 77.794 151.278 76.2982 150.973 74.5809C150.668 72.8636 150.516 70.7031 150.516 68.0994C150.516 62.6427 151.278 58.8479 152.801 56.7151C154.352 54.5546 157.191 53.4743 161.319 53.4743C163.701 53.4743 166.457 53.8483 169.587 54.5961L169.421 59.1665C166.678 58.751 164.393 58.5432 162.565 58.5432C160.765 58.5432 159.477 58.7925 158.701 59.2911C157.925 59.762 157.344 60.676 156.956 62.0333C156.596 63.3905 156.416 65.7034 156.416 68.9719C156.416 72.2403 156.79 74.5117 157.538 75.7858C158.313 77.0323 159.837 77.6555 162.108 77.6555C164.407 77.6555 166.845 77.4616 169.421 77.0738L169.545 81.7688ZM175.028 82.2258V53.9729H184.792L189.778 74.5809L194.764 53.9729H204.528V82.2258H198.794V60.3714H198.171L192.645 80.9794H186.911L181.385 60.3714H180.762V82.2258H175.028Z" fill="#3C9A4F"/>
<path d="M89.5151 106.032V97.3703H94.9778V98.5969H90.9187V101.05H94.2191V102.264H90.9187V104.793H94.9778V106.032H89.5151ZM100.387 99.7097H101.753V106.032H100.387V105.64C99.7721 105.994 99.203 106.171 98.6804 106.171C97.8121 106.171 97.2304 105.94 96.9353 105.476C96.6403 105.004 96.4927 104.182 96.4927 103.01V99.7097H97.8711V103.023C97.8711 103.781 97.9343 104.291 98.0607 104.553C98.1872 104.814 98.4822 104.945 98.9459 104.945C99.4011 104.945 99.8184 104.86 100.198 104.692L100.387 104.616V99.7097ZM103.675 106.032V99.7097H105.04V100.468C105.757 100.005 106.474 99.7055 107.19 99.5706V100.949C106.465 101.092 105.846 101.278 105.331 101.505L105.053 101.619V106.032H103.675ZM108.789 100.393C109.227 99.8446 109.952 99.5706 110.964 99.5706C111.975 99.5706 112.696 99.8446 113.126 100.393C113.564 100.94 113.784 101.762 113.784 102.858C113.784 103.954 113.573 104.78 113.151 105.337C112.73 105.893 112.001 106.171 110.964 106.171C109.927 106.171 109.198 105.893 108.776 105.337C108.355 104.78 108.144 103.954 108.144 102.858C108.144 101.762 108.359 100.94 108.789 100.393ZM109.826 104.502C110.02 104.839 110.399 105.008 110.964 105.008C111.529 105.008 111.908 104.839 112.102 104.502C112.296 104.165 112.393 103.613 112.393 102.846C112.393 102.079 112.287 101.535 112.077 101.214C111.874 100.894 111.503 100.734 110.964 100.734C110.424 100.734 110.049 100.894 109.838 101.214C109.636 101.535 109.535 102.079 109.535 102.846C109.535 103.613 109.632 104.165 109.826 104.502ZM115.406 108.751V99.7097H116.771V100.102C117.353 99.7476 117.897 99.5706 118.403 99.5706C119.237 99.5706 119.848 99.8277 120.236 100.342C120.624 100.848 120.818 101.703 120.818 102.909C120.818 104.106 120.594 104.949 120.148 105.438C119.709 105.927 118.988 106.171 117.985 106.171C117.64 106.171 117.239 106.133 116.784 106.058V108.751H115.406ZM118.162 100.797C117.766 100.797 117.37 100.886 116.974 101.063L116.784 101.151V104.882C117.121 104.949 117.492 104.983 117.897 104.983C118.47 104.983 118.866 104.818 119.085 104.49C119.305 104.161 119.414 103.6 119.414 102.808C119.414 101.467 118.997 100.797 118.162 100.797ZM126.952 104.894L127.306 104.856L127.331 105.881C126.37 106.074 125.519 106.171 124.777 106.171C123.841 106.171 123.167 105.914 122.754 105.4C122.349 104.886 122.147 104.064 122.147 102.934C122.147 100.692 123.062 99.5706 124.891 99.5706C126.661 99.5706 127.546 100.536 127.546 102.466L127.458 103.453H123.538C123.546 103.975 123.66 104.359 123.879 104.603C124.098 104.848 124.507 104.97 125.106 104.97C125.704 104.97 126.32 104.945 126.952 104.894ZM126.193 102.39C126.193 101.767 126.092 101.332 125.89 101.088C125.696 100.835 125.363 100.709 124.891 100.709C124.419 100.709 124.073 100.839 123.854 101.101C123.643 101.362 123.534 101.792 123.525 102.39H126.193ZM133.803 101.657V104.54C133.812 104.726 133.858 104.865 133.942 104.957C134.035 105.042 134.174 105.097 134.36 105.122L134.322 106.171C133.597 106.171 133.036 106.015 132.64 105.703C131.966 106.015 131.287 106.171 130.604 106.171C129.348 106.171 128.72 105.501 128.72 104.161C128.72 103.52 128.889 103.056 129.226 102.77C129.571 102.483 130.098 102.31 130.806 102.251L132.438 102.112V101.657C132.438 101.32 132.362 101.084 132.21 100.949C132.067 100.814 131.852 100.747 131.565 100.747C131.026 100.747 130.351 100.78 129.542 100.848L129.137 100.873L129.087 99.8994C130.006 99.6802 130.849 99.5706 131.616 99.5706C132.391 99.5706 132.948 99.7392 133.285 100.076C133.631 100.405 133.803 100.932 133.803 101.657ZM130.971 103.225C130.389 103.276 130.098 103.592 130.098 104.173C130.098 104.755 130.355 105.046 130.87 105.046C131.291 105.046 131.738 104.978 132.21 104.844L132.438 104.768V103.086L130.971 103.225ZM137.165 106.032H135.787V99.7097H137.152V100.102C137.768 99.7476 138.349 99.5706 138.897 99.5706C139.74 99.5706 140.314 99.8108 140.617 100.291C140.929 100.763 141.085 101.547 141.085 102.643V106.032H139.719V102.681C139.719 101.998 139.643 101.514 139.492 101.227C139.348 100.94 139.049 100.797 138.594 100.797C138.164 100.797 137.751 100.881 137.355 101.05L137.165 101.126V106.032ZM146.138 106.032V97.3703H147.542V106.032H146.138ZM151.001 106.032H149.623V99.7097H150.988V100.102C151.604 99.7476 152.185 99.5706 152.733 99.5706C153.576 99.5706 154.15 99.8108 154.453 100.291C154.765 100.763 154.921 101.547 154.921 102.643V106.032H153.555V102.681C153.555 101.998 153.479 101.514 153.328 101.227C153.184 100.94 152.885 100.797 152.43 100.797C152 100.797 151.587 100.881 151.191 101.05L151.001 101.126V106.032ZM161.166 101.012C160.172 100.877 159.451 100.81 159.004 100.81C158.557 100.81 158.245 100.865 158.068 100.974C157.9 101.075 157.815 101.24 157.815 101.467C157.815 101.695 157.908 101.855 158.094 101.948C158.288 102.041 158.734 102.15 159.434 102.277C160.142 102.395 160.644 102.584 160.939 102.846C161.234 103.107 161.381 103.571 161.381 104.237C161.381 104.903 161.166 105.392 160.736 105.703C160.315 106.015 159.695 106.171 158.878 106.171C158.363 106.171 157.714 106.1 156.93 105.956L156.538 105.893L156.589 104.742C157.6 104.877 158.33 104.945 158.776 104.945C159.223 104.945 159.539 104.89 159.725 104.78C159.919 104.671 160.016 104.49 160.016 104.237C160.016 103.984 159.923 103.811 159.738 103.718C159.56 103.617 159.126 103.512 158.435 103.402C157.752 103.284 157.251 103.103 156.93 102.858C156.61 102.614 156.45 102.167 156.45 101.518C156.45 100.869 156.669 100.384 157.107 100.064C157.554 99.7434 158.123 99.5832 158.814 99.5832C159.354 99.5832 160.016 99.6507 160.8 99.7855L161.192 99.8614L161.166 101.012ZM166.36 100.886H164.615V103.668C164.615 104.182 164.653 104.523 164.729 104.692C164.805 104.86 164.999 104.945 165.311 104.945L166.348 104.907L166.411 106.007C165.846 106.117 165.416 106.171 165.121 106.171C164.405 106.171 163.911 106.007 163.642 105.678C163.38 105.349 163.25 104.73 163.25 103.819V100.886H162.44V99.7097H163.25V97.8761H164.615V99.7097H166.36V100.886ZM167.744 106.032V99.7097H169.122V106.032H167.744ZM167.744 98.6348V97.1806H169.122V98.6348H167.744ZM174.448 100.886H172.703V103.668C172.703 104.182 172.741 104.523 172.817 104.692C172.893 104.86 173.087 104.945 173.399 104.945L174.436 104.907L174.499 106.007C173.934 106.117 173.504 106.171 173.209 106.171C172.493 106.171 171.999 106.007 171.73 105.678C171.468 105.349 171.338 104.73 171.338 103.819V100.886H170.528V99.7097H171.338V97.8761H172.703V99.7097H174.448V100.886ZM179.663 99.7097H181.029V106.032H179.663V105.64C179.048 105.994 178.479 106.171 177.956 106.171C177.088 106.171 176.506 105.94 176.211 105.476C175.916 105.004 175.769 104.182 175.769 103.01V99.7097H177.147V103.023C177.147 103.781 177.21 104.291 177.337 104.553C177.463 104.814 177.758 104.945 178.222 104.945C178.677 104.945 179.094 104.86 179.474 104.692L179.663 104.616V99.7097ZM186.352 100.886H184.607V103.668C184.607 104.182 184.645 104.523 184.721 104.692C184.797 104.86 184.991 104.945 185.303 104.945L186.339 104.907L186.403 106.007C185.838 106.117 185.408 106.171 185.113 106.171C184.396 106.171 183.903 106.007 183.633 105.678C183.372 105.349 183.241 104.73 183.241 103.819V100.886H182.432V99.7097H183.241V97.8761H184.607V99.7097H186.352V100.886ZM192.237 104.894L192.591 104.856L192.617 105.881C191.655 106.074 190.804 106.171 190.062 106.171C189.126 106.171 188.452 105.914 188.039 105.4C187.634 104.886 187.432 104.064 187.432 102.934C187.432 100.692 188.347 99.5706 190.176 99.5706C191.946 99.5706 192.831 100.536 192.831 102.466L192.743 103.453H188.823C188.831 103.975 188.945 104.359 189.164 104.603C189.384 104.848 189.792 104.97 190.391 104.97C190.99 104.97 191.605 104.945 192.237 104.894ZM191.478 102.39C191.478 101.767 191.377 101.332 191.175 101.088C190.981 100.835 190.648 100.709 190.176 100.709C189.704 100.709 189.358 100.839 189.139 101.101C188.928 101.362 188.819 101.792 188.81 102.39H191.478ZM91.0072 116.886V122.032H89.6415V116.886H88.9081V115.71H89.6415V115.305C89.6415 114.403 89.7722 113.783 90.0335 113.446C90.2949 113.109 90.7585 112.94 91.4245 112.94L92.7902 113.067L92.7775 114.192C92.3645 114.175 92.0188 114.167 91.7406 114.167C91.4709 114.167 91.2812 114.251 91.1716 114.42C91.062 114.58 91.0072 114.879 91.0072 115.318V115.71H92.6764V116.886H91.0072ZM94.2424 116.393C94.6808 115.845 95.4058 115.571 96.4174 115.571C97.429 115.571 98.1498 115.845 98.5797 116.393C99.0181 116.94 99.2372 117.762 99.2372 118.858C99.2372 119.954 99.0265 120.78 98.605 121.337C98.1835 121.893 97.4543 122.171 96.4174 122.171C95.3805 122.171 94.6513 121.893 94.2298 121.337C93.8082 120.78 93.5975 119.954 93.5975 118.858C93.5975 117.762 93.8125 116.94 94.2424 116.393ZM95.2793 120.502C95.4732 120.839 95.8525 121.008 96.4174 121.008C96.9822 121.008 97.3615 120.839 97.5554 120.502C97.7493 120.165 97.8463 119.613 97.8463 118.846C97.8463 118.079 97.7409 117.535 97.5301 117.214C97.3278 116.894 96.9569 116.734 96.4174 116.734C95.8778 116.734 95.5027 116.894 95.2919 117.214C95.0896 117.535 94.9885 118.079 94.9885 118.846C94.9885 119.613 95.0854 120.165 95.2793 120.502ZM100.859 122.032V115.71H102.225V116.468C102.942 116.005 103.658 115.705 104.375 115.571V116.949C103.65 117.092 103.03 117.278 102.516 117.505L102.238 117.619V122.032H100.859ZM112.051 119.339H110.281V122.032H108.877V113.37H112.051C114.015 113.37 114.997 114.34 114.997 116.279C114.997 117.273 114.749 118.032 114.251 118.555C113.762 119.078 113.029 119.339 112.051 119.339ZM110.281 118.125H112.038C113.05 118.125 113.556 117.51 113.556 116.279C113.556 115.689 113.433 115.259 113.189 114.989C112.945 114.719 112.561 114.584 112.038 114.584H110.281V118.125ZM121.053 117.657V120.54C121.062 120.726 121.108 120.865 121.193 120.957C121.285 121.042 121.424 121.097 121.61 121.122L121.572 122.171C120.847 122.171 120.286 122.015 119.89 121.703C119.216 122.015 118.537 122.171 117.854 122.171C116.598 122.171 115.97 121.501 115.97 120.161C115.97 119.52 116.139 119.056 116.476 118.77C116.822 118.483 117.348 118.31 118.057 118.251L119.688 118.112V117.657C119.688 117.32 119.612 117.084 119.46 116.949C119.317 116.814 119.102 116.747 118.815 116.747C118.276 116.747 117.601 116.78 116.792 116.848L116.387 116.873L116.337 115.899C117.256 115.68 118.099 115.571 118.866 115.571C119.641 115.571 120.198 115.739 120.535 116.076C120.881 116.405 121.053 116.932 121.053 117.657ZM118.221 119.225C117.639 119.276 117.348 119.592 117.348 120.173C117.348 120.755 117.606 121.046 118.12 121.046C118.541 121.046 118.988 120.978 119.46 120.844L119.688 120.768V119.086L118.221 119.225ZM123.037 122.032V115.71H124.402V116.468C125.119 116.005 125.836 115.705 126.552 115.571V116.949C125.827 117.092 125.207 117.278 124.693 117.505L124.415 117.619V122.032H123.037ZM131.26 116.886H129.515V119.668C129.515 120.182 129.553 120.523 129.629 120.692C129.705 120.86 129.899 120.945 130.211 120.945L131.248 120.907L131.311 122.007C130.746 122.117 130.316 122.171 130.021 122.171C129.304 122.171 128.811 122.007 128.542 121.678C128.28 121.349 128.15 120.73 128.15 119.819V116.886H127.34V115.71H128.15V113.876H129.515V115.71H131.26V116.886ZM132.644 122.032V115.71H134.022V122.032H132.644ZM132.644 114.635V113.181H134.022V114.635H132.644ZM138.311 115.571C138.758 115.571 139.285 115.63 139.892 115.748L140.208 115.811L140.157 116.898C139.491 116.831 138.998 116.797 138.678 116.797C138.037 116.797 137.607 116.94 137.388 117.227C137.169 117.514 137.059 118.053 137.059 118.846C137.059 119.638 137.165 120.186 137.376 120.49C137.586 120.793 138.025 120.945 138.691 120.945L140.17 120.844L140.208 121.944C139.357 122.095 138.716 122.171 138.286 122.171C137.325 122.171 136.646 121.914 136.25 121.4C135.862 120.877 135.668 120.026 135.668 118.846C135.668 117.665 135.875 116.827 136.288 116.329C136.701 115.823 137.376 115.571 138.311 115.571ZM141.794 122.032V115.71H143.172V122.032H141.794ZM141.794 114.635V113.181H143.172V114.635H141.794ZM145.097 124.751V115.71H146.462V116.102C147.044 115.748 147.588 115.571 148.093 115.571C148.928 115.571 149.539 115.828 149.927 116.342C150.315 116.848 150.509 117.703 150.509 118.909C150.509 120.106 150.285 120.949 149.839 121.438C149.4 121.927 148.679 122.171 147.676 122.171C147.331 122.171 146.93 122.133 146.475 122.058V124.751H145.097ZM147.853 116.797C147.457 116.797 147.061 116.886 146.665 117.063L146.475 117.151V120.882C146.812 120.949 147.183 120.983 147.588 120.983C148.161 120.983 148.557 120.818 148.776 120.49C148.996 120.161 149.105 119.6 149.105 118.808C149.105 117.467 148.688 116.797 147.853 116.797ZM156.82 117.657V120.54C156.828 120.726 156.875 120.865 156.959 120.957C157.052 121.042 157.191 121.097 157.376 121.122L157.338 122.171C156.614 122.171 156.053 122.015 155.657 121.703C154.982 122.015 154.304 122.171 153.621 122.171C152.365 122.171 151.737 121.501 151.737 120.161C151.737 119.52 151.905 119.056 152.242 118.77C152.588 118.483 153.115 118.31 153.823 118.251L155.454 118.112V117.657C155.454 117.32 155.378 117.084 155.227 116.949C155.083 116.814 154.868 116.747 154.582 116.747C154.042 116.747 153.368 116.78 152.559 116.848L152.154 116.873L152.103 115.899C153.022 115.68 153.865 115.571 154.632 115.571C155.408 115.571 155.964 115.739 156.302 116.076C156.647 116.405 156.82 116.932 156.82 117.657ZM153.988 119.225C153.406 119.276 153.115 119.592 153.115 120.173C153.115 120.755 153.372 121.046 153.886 121.046C154.308 121.046 154.755 120.978 155.227 120.844L155.454 120.768V119.086L153.988 119.225ZM162.205 116.886H160.46V119.668C160.46 120.182 160.498 120.523 160.574 120.692C160.649 120.86 160.843 120.945 161.155 120.945L162.192 120.907L162.255 122.007C161.691 122.117 161.261 122.171 160.966 122.171C160.249 122.171 159.756 122.007 159.486 121.678C159.225 121.349 159.094 120.73 159.094 119.819V116.886H158.285V115.71H159.094V113.876H160.46V115.71H162.205V116.886ZM163.93 116.393C164.368 115.845 165.093 115.571 166.105 115.571C167.116 115.571 167.837 115.845 168.267 116.393C168.705 116.94 168.924 117.762 168.924 118.858C168.924 119.954 168.714 120.78 168.292 121.337C167.871 121.893 167.141 122.171 166.105 122.171C165.068 122.171 164.338 121.893 163.917 121.337C163.495 120.78 163.285 119.954 163.285 118.858C163.285 117.762 163.5 116.94 163.93 116.393ZM164.966 120.502C165.16 120.839 165.54 121.008 166.105 121.008C166.669 121.008 167.049 120.839 167.243 120.502C167.437 120.165 167.533 119.613 167.533 118.846C167.533 118.079 167.428 117.535 167.217 117.214C167.015 116.894 166.644 116.734 166.105 116.734C165.565 116.734 165.19 116.894 164.979 117.214C164.777 117.535 164.676 118.079 164.676 118.846C164.676 119.613 164.773 120.165 164.966 120.502ZM170.546 122.032V115.71H171.912V116.468C172.629 116.005 173.345 115.705 174.062 115.571V116.949C173.337 117.092 172.717 117.278 172.203 117.505L171.925 117.619V122.032H170.546ZM174.787 115.71H176.14L177.48 120.856H177.822L179.162 115.71H180.528L178.125 124.751H176.772L177.531 122.032H176.443L174.787 115.71ZM185.041 122.032V113.37H187.481L189.416 120.135L191.351 113.37H193.804V122.032H192.388V114.926H192.198L190.15 121.678H188.683L186.634 114.926H186.444V122.032H185.041ZM200.3 120.894L200.654 120.856L200.68 121.881C199.719 122.074 198.867 122.171 198.125 122.171C197.19 122.171 196.515 121.914 196.102 121.4C195.698 120.886 195.495 120.064 195.495 118.934C195.495 116.692 196.41 115.571 198.239 115.571C200.01 115.571 200.895 116.536 200.895 118.466L200.806 119.453H196.886C196.895 119.975 197.008 120.359 197.228 120.603C197.447 120.848 197.856 120.97 198.454 120.97C199.053 120.97 199.668 120.945 200.3 120.894ZM199.542 118.39C199.542 117.767 199.441 117.332 199.238 117.088C199.044 116.835 198.711 116.709 198.239 116.709C197.767 116.709 197.422 116.839 197.202 117.101C196.992 117.362 196.882 117.792 196.874 118.39H199.542ZM207.632 113.079V122.032H206.267V121.703C205.651 122.015 205.086 122.171 204.572 122.171C203.746 122.171 203.139 121.923 202.751 121.425C202.372 120.928 202.182 120.093 202.182 118.922C202.182 117.75 202.393 116.898 202.814 116.367C203.244 115.836 203.91 115.571 204.812 115.571C205.116 115.571 205.596 115.625 206.254 115.735V113.079H207.632ZM206.039 120.717L206.254 120.629V116.886C205.748 116.801 205.28 116.759 204.85 116.759C203.999 116.759 203.573 117.467 203.573 118.884C203.573 119.659 203.67 120.199 203.864 120.502C204.066 120.797 204.382 120.945 204.812 120.945C205.242 120.945 205.651 120.869 206.039 120.717ZM209.555 122.032V115.71H210.933V122.032H209.555ZM209.555 114.635V113.181H210.933V114.635H209.555ZM217.537 117.657V120.54C217.545 120.726 217.591 120.865 217.676 120.957C217.768 121.042 217.908 121.097 218.093 121.122L218.055 122.171C217.33 122.171 216.769 122.015 216.373 121.703C215.699 122.015 215.02 122.171 214.337 122.171C213.081 122.171 212.453 121.501 212.453 120.161C212.453 119.52 212.622 119.056 212.959 118.77C213.305 118.483 213.832 118.31 214.54 118.251L216.171 118.112V117.657C216.171 117.32 216.095 117.084 215.943 116.949C215.8 116.814 215.585 116.747 215.298 116.747C214.759 116.747 214.084 116.78 213.275 116.848L212.871 116.873L212.82 115.899C213.739 115.68 214.582 115.571 215.349 115.571C216.125 115.571 216.681 115.739 217.018 116.076C217.364 116.405 217.537 116.932 217.537 117.657ZM214.704 119.225C214.122 119.276 213.832 119.592 213.832 120.173C213.832 120.755 214.089 121.046 214.603 121.046C215.024 121.046 215.471 120.978 215.943 120.844L216.171 120.768V119.086L214.704 119.225Z" fill="black"/>
<path fill-rule="evenodd" clip-rule="evenodd" d="M84.6687 1.05424C85.2261 0.0596238 86.4818 -0.293933 87.4725 0.265513C88.4632 0.82496 88.8148 2.08619 88.2579 3.08123C87.701 4.07627 80.9736 13.7826 80.2994 17.2877C79.6253 20.7928 80.123 22.6759 80.9736 24.1197C81.8241 25.5635 82.8982 27.8025 86.0532 28.3729C89.2081 28.9433 102.496 28.3803 103.632 28.3729C104.769 28.3654 105.67 29.1669 105.677 30.3083C105.685 31.4497 104.769 32.3815 103.632 32.3892C102.495 32.3969 84.6768 31.6249 81.9547 32.5345C79.2325 33.4441 76.9643 34.2431 74.1114 35.8348C71.2585 37.4264 67.0501 41.991 64.4628 45.5579C61.8756 49.1248 61.0672 50.7927 60.3589 52.8852C59.6507 54.9777 59.0147 57.0237 59.0147 60.6432C59.0146 64.2627 60.7478 70.2894 61.9512 73.2641C63.1545 76.2389 71.1873 88.9298 71.7659 89.9121C72.3446 90.8945 72.0204 92.1626 71.0422 92.744C70.0641 93.3254 68.8014 92.9995 68.2223 92.0172C67.6432 91.0349 59.7009 75.6203 57.5672 73.9425C55.4335 72.2647 55.6535 72.3583 53.5249 72.3583C51.3963 72.3583 48.4939 74.5789 47.2712 76.2521C46.0485 77.9254 39.4077 90.2939 38.8503 91.289C38.293 92.2841 37.0373 92.6375 36.0465 92.0777C35.0557 91.518 34.7039 90.257 35.2611 89.262C35.8183 88.267 45.3047 72.2638 46.2366 69.6624C47.1685 67.061 48.0353 64.3019 48.0352 62.0215C48.0351 59.741 46.6986 56.0025 45.5584 53.573C44.4182 51.1434 40.9324 45.6998 40.4238 44.8634C39.9153 44.027 40.0295 43.8747 39.1144 42.726C38.1993 41.5773 36.3695 38.5913 32.2522 35.8348C28.1349 33.0783 27.4487 33.4686 23.3314 33.0783C19.2141 32.688 14.696 32.7701 12.661 32.7701C11.2617 32.7703 3.20876 33.0709 2.0721 33.0783C0.93543 33.0857 0.00740937 32.1657 4.41018e-05 31.0244C-0.00732116 29.883 0.908782 28.9513 2.04529 28.9435C3.1818 28.9358 17.1555 29.6324 19.8735 28.8211C22.5916 28.0097 23.5839 28.0007 25.3901 26.1868C27.1962 24.3729 26.705 23.8505 26.1031 20.5691C25.5011 17.2877 18.0205 6.85911 17.4423 5.87675C16.864 4.8944 17.188 3.62603 18.166 3.04489C19.1441 2.46375 20.4068 2.78987 20.9859 3.7717C21.5651 4.75352 27.4487 16.5391 29.9282 18.9418C32.4077 21.3446 36.7069 24.289 39.1144 25.4979C41.5219 26.7069 44.1568 27.8506 45.9765 28.6434C47.7963 29.4362 61.2584 28.9898 62.9028 28.529C64.5472 28.0682 66.6388 27.1573 68.6217 25.4979C70.6046 23.8385 73.0066 20.9407 75.0107 18.2917C77.0149 15.6428 84.1113 2.04885 84.6687 1.05424ZM47.2136 32.7701C45.5543 33.2132 43.9911 34.3096 43.2317 35.8348C42.4723 37.36 42.7566 39.4388 43.4796 41.9292C44.2026 44.4196 48.0728 50.7295 49.2428 51.7048C50.4127 52.6801 51.5667 53.2263 52.8387 53.0629C54.1107 52.8994 55.6588 51.8311 57.082 50.301C58.5052 48.7708 62.9989 40.7028 63.5421 38.7676C64.0852 36.8324 64.4628 35.8348 63.5059 34.6894C62.5489 33.544 60.9326 32.9787 59.402 32.688C57.8714 32.3973 48.873 32.3269 47.2136 32.7701Z" fill="url(#paint0_linear_38_1449)"/>
<defs>
<linearGradient id="paint0_linear_38_1449" x1="48.8363" y1="98.2866" x2="102.558" y2="-7.97957" gradientUnits="userSpaceOnUse">
<stop stop-color="#1F8E65"/>
<stop offset="1" stop-color="#90BB0A"/>
</linearGradient>
</defs>
</svg>
