<svg id="Layer_1" data-name="Layer 1" xmlns="http://www.w3.org/2000/svg" viewBox="0 0 633.75 153.28"><defs><style>.cls-1{fill:#d71d24;}.cls-2{fill:#231f20;}</style></defs><title>Untitled-1</title><path class="cls-1" d="M398.3,339.81h32v32h-32v28c0,33.79,27.2,61.29,60.64,61.29s60.63-27.5,60.63-61.29v-60Zm89.29,60.35a28.66,28.66,0,1,1-57.31,0V371.8h57.31Z" transform="translate(-366.32 -307.83)"/><path class="cls-2" d="M564.51,426.61a9.39,9.39,0,0,1,3.68,3.66,10.77,10.77,0,0,1,1.32,5.37,10.63,10.63,0,0,1-1.3,5.33,9.06,9.06,0,0,1-3.66,3.6,11,11,0,0,1-5.4,1.31h-6.87V425.3h6.87A10.88,10.88,0,0,1,564.51,426.61ZM563,442.34a6.68,6.68,0,0,0,2.66-2.71,8.26,8.26,0,0,0,.95-4,8.52,8.52,0,0,0-.95-4.07,6.69,6.69,0,0,0-2.66-2.74,8.07,8.07,0,0,0-4-1h-3.89V443.3H559A8.07,8.07,0,0,0,563,442.34Z" transform="translate(-366.32 -307.83)"/><path class="cls-2" d="M583.05,445a7.61,7.61,0,0,1-4.36,1.27,7.42,7.42,0,0,1-3.78-.95,6.49,6.49,0,0,1-2.54-2.65,8.26,8.26,0,0,1-.9-3.93,8.15,8.15,0,0,1,.91-3.91,6.45,6.45,0,0,1,2.54-2.61,7.26,7.26,0,0,1,3.68-.92,7.08,7.08,0,0,1,3.54.85,6.09,6.09,0,0,1,2.37,2.38,7,7,0,0,1,.86,3.48,7.22,7.22,0,0,1-.13,1.61H574.1a4.35,4.35,0,0,0,4.59,4.45,5,5,0,0,0,2.58-.66,3.38,3.38,0,0,0,1.53-1.77h2.6A5.47,5.47,0,0,1,583.05,445Zm-.38-7.31a4.11,4.11,0,0,0-1.16-3,4,4,0,0,0-2.94-1.12,4.45,4.45,0,0,0-3.15,1.12,4,4,0,0,0-1.29,3Z" transform="translate(-366.32 -307.83)"/><path class="cls-2" d="M599.47,432.23a6.34,6.34,0,0,1,2.43,2.64,8.32,8.32,0,0,1,.88,3.91,8.59,8.59,0,0,1-.86,3.91,6.32,6.32,0,0,1-2.42,2.64,7.15,7.15,0,0,1-6.81.15,5.52,5.52,0,0,1-2.17-2.14l-.21,2.54h-2.2v-22h2.6v10a5,5,0,0,1,2.12-1.87,6.94,6.94,0,0,1,3.09-.67A6.82,6.82,0,0,1,599.47,432.23Zm-.65,10.23a6,6,0,0,0,0-7.35,4.34,4.34,0,0,0-3.36-1.4,4.25,4.25,0,0,0-3.31,1.35,5.22,5.22,0,0,0-1.23,3.65,5.42,5.42,0,0,0,1.24,3.75,4.24,4.24,0,0,0,3.33,1.39A4.3,4.3,0,0,0,598.82,442.46Z" transform="translate(-366.32 -307.83)"/><path class="cls-2" d="M617.61,431.72v14.16h-2.18l-.25-2.06a4.37,4.37,0,0,1-1.87,1.84,6,6,0,0,1-2.72.61,5,5,0,0,1-3.84-1.48,5.67,5.67,0,0,1-1.37-4v-9.08h2.67v8.58a3.72,3.72,0,0,0,.88,2.79,3.52,3.52,0,0,0,2.49.83,3.22,3.22,0,0,0,2.56-1.11,4.32,4.32,0,0,0,1-2.94v-8.15Z" transform="translate(-366.32 -307.83)"/><path class="cls-2" d="M632.28,432.83a6,6,0,0,1,1.44,4.28v8.77H631v-8.15q0-4-3.24-4a3.58,3.58,0,0,0-3.82,3.78v8.35h-2.67V431.72h2.23l.25,2a4.58,4.58,0,0,1,1.91-1.75,5.86,5.86,0,0,1,2.74-.66A5.05,5.05,0,0,1,632.28,432.83Z" transform="translate(-366.32 -307.83)"/><path class="cls-2" d="M644.76,437l4.85,8.89h-3l-3.75-7L640,441.86v4h-2.67v-22H640v14.71l6.52-6.84h3.27Z" transform="translate(-366.32 -307.83)"/><path class="cls-2" d="M652.08,427.69a1.87,1.87,0,0,1-.57-1.39,1.81,1.81,0,0,1,.57-1.35,2.06,2.06,0,0,1,2.8,0,1.83,1.83,0,0,1,.55,1.35,2,2,0,0,1-.54,1.38,1.83,1.83,0,0,1-1.42.58A1.87,1.87,0,0,1,652.08,427.69Zm.07,4h2.67v14.16h-2.67Z" transform="translate(-366.32 -307.83)"/><path class="cls-2" d="M669.68,432.83a6,6,0,0,1,1.44,4.28v8.77h-2.7v-8.15q0-4-3.24-4a3.59,3.59,0,0,0-3.83,3.78v8.35h-2.66V431.72h2.23l.25,2a4.52,4.52,0,0,1,1.91-1.75,5.83,5.83,0,0,1,2.74-.66A5.07,5.07,0,0,1,669.68,432.83Z" transform="translate(-366.32 -307.83)"/><path class="cls-2" d="M688.33,431.72v14.09a6.53,6.53,0,0,1-2,4.95,7.34,7.34,0,0,1-5.27,1.86,7.54,7.54,0,0,1-4.78-1.49,6.06,6.06,0,0,1-2.25-4.09h2.63a3.76,3.76,0,0,0,1.49,2.39,4.87,4.87,0,0,0,2.91.85,4.57,4.57,0,0,0,3.37-1.19,4.33,4.33,0,0,0,1.19-3.21v-3a5,5,0,0,1-2.09,1.9,7.29,7.29,0,0,1-6.6-.23,6,6,0,0,1-2.34-2.51,8.35,8.35,0,0,1,0-7.26,6.19,6.19,0,0,1,2.37-2.57,6.79,6.79,0,0,1,3.57-.93,6.42,6.42,0,0,1,3.1.72,5.14,5.14,0,0,1,2.07,2l.15-2.31Zm-4.1,10.07a5.21,5.21,0,0,0,0-6.78,4.28,4.28,0,0,0-3.29-1.36,4.1,4.1,0,0,0-3.22,1.36,5,5,0,0,0-1.19,3.42,4.84,4.84,0,0,0,1.21,3.39,4.13,4.13,0,0,0,3.2,1.33A4.3,4.3,0,0,0,684.23,441.79Z" transform="translate(-366.32 -307.83)"/><path class="cls-2" d="M712.7,423.85v22h-2.18l-.23-2.54a5.12,5.12,0,0,1-2.13,2.12,7.13,7.13,0,0,1-6.84-.13,6.36,6.36,0,0,1-2.42-2.63,8.48,8.48,0,0,1-.87-3.92,8.32,8.32,0,0,1,.89-3.91,6.47,6.47,0,0,1,2.43-2.64,6.79,6.79,0,0,1,3.55-.93A7,7,0,0,1,708,432a5,5,0,0,1,2.1,1.87v-10Zm-4,18.61a5.35,5.35,0,0,0,1.28-3.75,5.1,5.1,0,0,0-1.27-3.63,4.73,4.73,0,0,0-6.69,0,6,6,0,0,0,0,7.34,4.21,4.21,0,0,0,3.31,1.4A4.37,4.37,0,0,0,708.69,442.46Z" transform="translate(-366.32 -307.83)"/><path class="cls-2" d="M716.35,427.69a1.9,1.9,0,0,1-.56-1.39,1.84,1.84,0,0,1,.56-1.35,2.07,2.07,0,0,1,2.81,0,1.87,1.87,0,0,1,.55,1.35,2,2,0,0,1-.54,1.38,1.85,1.85,0,0,1-1.42.58A1.89,1.89,0,0,1,716.35,427.69Zm.08,4h2.67v14.16h-2.67Z" transform="translate(-366.32 -307.83)"/><path class="cls-2" d="M723.57,445.08a4.14,4.14,0,0,1-1.72-3.15h2.61a2.17,2.17,0,0,0,.94,1.69,3.78,3.78,0,0,0,2.24.59,3.66,3.66,0,0,0,2.14-.54,1.8,1.8,0,0,0,.77-1.56,1.59,1.59,0,0,0-.61-1.41,4.27,4.27,0,0,0-1.57-.64l-2.5-.58a5,5,0,0,1-2.75-1.43,3.54,3.54,0,0,1-.89-2.44,3.8,3.8,0,0,1,1.48-3.14,6.92,6.92,0,0,1,7.76,0A4.06,4.06,0,0,1,733,435.7h-2.6a2.14,2.14,0,0,0-.84-1.72,3.26,3.26,0,0,0-2.06-.63,3,3,0,0,0-1.89.54,1.74,1.74,0,0,0-.7,1.48,1.53,1.53,0,0,0,.56,1.31,3.69,3.69,0,0,0,1.46.59l2.86.64a4.55,4.55,0,0,1,2.63,1.44,4.12,4.12,0,0,1-.68,5.73,7.66,7.66,0,0,1-8.2,0Z" transform="translate(-366.32 -307.83)"/><path class="cls-2" d="M736.16,427.69a1.9,1.9,0,0,1-.56-1.39,1.84,1.84,0,0,1,.56-1.35,2,2,0,0,1,1.4-.55A2,2,0,0,1,739,425a1.83,1.83,0,0,1,.55,1.35,2,2,0,0,1-.54,1.38,1.85,1.85,0,0,1-1.42.58A1.91,1.91,0,0,1,736.16,427.69Zm.08,4h2.67v14.16h-2.67Z" transform="translate(-366.32 -307.83)"/><path class="cls-2" d="M753.77,432.83a6,6,0,0,1,1.44,4.28v8.77h-2.7v-8.15q0-4-3.24-4a3.59,3.59,0,0,0-3.83,3.78v8.35h-2.66V431.72H745l.26,2a4.52,4.52,0,0,1,1.91-1.75,5.83,5.83,0,0,1,2.74-.66A5.07,5.07,0,0,1,753.77,432.83Z" transform="translate(-366.32 -307.83)"/><path class="cls-2" d="M763.28,426.41a1.74,1.74,0,0,0-.66,1,7.46,7.46,0,0,0-.12,1.46v2.82H766v2.21H762.5v11.95h-2.67V433.93h-2.57v-2.21h2.57v-3.34q0-4.65,4.63-4.65a8.28,8.28,0,0,1,1.5.12v2.22a4,4,0,0,0-1-.1A2.56,2.56,0,0,0,763.28,426.41Z" transform="translate(-366.32 -307.83)"/><path class="cls-2" d="M767.82,435a7.19,7.19,0,0,1,2.69-2.7,7.82,7.82,0,0,1,3.94-1,7.93,7.93,0,0,1,4,1,7.13,7.13,0,0,1,2.72,2.7,7.63,7.63,0,0,1,1,3.82,7.41,7.41,0,0,1-1,3.79,7,7,0,0,1-2.71,2.69,8.39,8.39,0,0,1-7.87,0,7.19,7.19,0,0,1-2.71-2.68,7.52,7.52,0,0,1-1-3.8A7.64,7.64,0,0,1,767.82,435Zm3.16,7.45a4.56,4.56,0,0,0,3.47,1.45,4.71,4.71,0,0,0,3.56-1.45,5.07,5.07,0,0,0,1.37-3.63,5.15,5.15,0,0,0-1.37-3.67,4.65,4.65,0,0,0-3.56-1.46,4.53,4.53,0,0,0-3.47,1.46,5.15,5.15,0,0,0-1.37,3.67A5.07,5.07,0,0,0,771,442.44Z" transform="translate(-366.32 -307.83)"/><path class="cls-2" d="M792.56,431.72V434a5.33,5.33,0,0,0-1-.07,3.81,3.81,0,0,0-3,1.15,4.54,4.54,0,0,0-1,3.16v7.64h-2.66V431.72h2.35l.31,2.15a2.94,2.94,0,0,1,1.36-1.68,4.36,4.36,0,0,1,2.31-.59A7.37,7.37,0,0,1,792.56,431.72Z" transform="translate(-366.32 -307.83)"/><path class="cls-2" d="M814.19,432.66a5.14,5.14,0,0,1,1.41,3.87v9.38H813v-8.8a3.69,3.69,0,0,0-.82-2.63,3,3,0,0,0-2.26-.86,3.11,3.11,0,0,0-2.49,1.06,3.77,3.77,0,0,0-.91,2.56v8.67h-2.64v-8.8a3.69,3.69,0,0,0-.83-2.56,2.93,2.93,0,0,0-2.32-.93,3,3,0,0,0-2.42,1.06,3.74,3.74,0,0,0-.92,2.53v8.7h-2.66V431.72h2.38l.19,1.8A4.34,4.34,0,0,1,799,431.9a5,5,0,0,1,2.42-.6,5.15,5.15,0,0,1,2.82.78,4.28,4.28,0,0,1,1.74,2.07,4.46,4.46,0,0,1,1.8-2.1,5.25,5.25,0,0,1,2.79-.75A5,5,0,0,1,814.19,432.66Z" transform="translate(-366.32 -307.83)"/><path class="cls-2" d="M833,431.72v14.16h-2.51v-2.51a5.18,5.18,0,0,1-2.16,2.11,6.87,6.87,0,0,1-3.29.79,6.49,6.49,0,0,1-3.49-.94,6.25,6.25,0,0,1-2.37-2.61,9.27,9.27,0,0,1,0-7.84,6.5,6.5,0,0,1,2.43-2.65,6.85,6.85,0,0,1,3.58-.93,6.78,6.78,0,0,1,3.18.72,5.32,5.32,0,0,1,2.14,2l.24-2.28Zm-4,10.74a5.35,5.35,0,0,0,1.28-3.75,5.1,5.1,0,0,0-1.27-3.63,4.73,4.73,0,0,0-6.69,0,6,6,0,0,0,0,7.34,4.21,4.21,0,0,0,3.31,1.4A4.37,4.37,0,0,0,829,442.46Z" transform="translate(-366.32 -307.83)"/><path class="cls-2" d="M852.6,435a7.19,7.19,0,0,1,2.69-2.7,7.82,7.82,0,0,1,3.94-1,7.93,7.93,0,0,1,4,1,7.13,7.13,0,0,1,2.72,2.7,7.63,7.63,0,0,1,1,3.82,7.41,7.41,0,0,1-1,3.79,7,7,0,0,1-2.71,2.69,8.39,8.39,0,0,1-7.87,0,7.19,7.19,0,0,1-2.71-2.68,7.52,7.52,0,0,1-1-3.8A7.64,7.64,0,0,1,852.6,435Zm3.16,7.45a4.57,4.57,0,0,0,3.47,1.45,4.71,4.71,0,0,0,3.56-1.45,5.07,5.07,0,0,0,1.37-3.63,5.15,5.15,0,0,0-1.37-3.67,4.65,4.65,0,0,0-3.56-1.46,4.54,4.54,0,0,0-3.47,1.46,5.15,5.15,0,0,0-1.37,3.67A5.07,5.07,0,0,0,855.76,442.44Z" transform="translate(-366.32 -307.83)"/><path class="cls-2" d="M880.64,432.83a6,6,0,0,1,1.45,4.28v8.77h-2.7v-8.15q0-4-3.24-4a3.59,3.59,0,0,0-3.83,3.78v8.35h-2.66V431.72h2.22l.26,2a4.52,4.52,0,0,1,1.91-1.75,5.83,5.83,0,0,1,2.74-.66A5,5,0,0,1,880.64,432.83Z" transform="translate(-366.32 -307.83)"/><path class="cls-2" d="M899.44,433.93h-2.79v11.95H894V433.93h-2.75v-2.21H894V428h2.67v3.76h2.79Z" transform="translate(-366.32 -307.83)"/><path class="cls-2" d="M901.53,435a7.14,7.14,0,0,1,2.7-2.7,7.79,7.79,0,0,1,3.94-1,7.92,7.92,0,0,1,4,1,7.13,7.13,0,0,1,2.72,2.7,7.91,7.91,0,0,1,0,7.61,7.14,7.14,0,0,1-2.71,2.69,8,8,0,0,1-4,1,7.83,7.83,0,0,1-3.91-1,7,7,0,0,1-2.71-2.68,7.42,7.42,0,0,1-1-3.8A7.63,7.63,0,0,1,901.53,435Zm3.16,7.45a4.59,4.59,0,0,0,3.48,1.45,4.69,4.69,0,0,0,3.55-1.45,5.07,5.07,0,0,0,1.37-3.63,5.14,5.14,0,0,0-1.36-3.67,4.67,4.67,0,0,0-3.56-1.46,4.57,4.57,0,0,0-3.48,1.46,5.14,5.14,0,0,0-1.36,3.67A5.06,5.06,0,0,0,904.69,442.44Z" transform="translate(-366.32 -307.83)"/><path class="cls-2" d="M932.24,431.72v14.09a6.52,6.52,0,0,1-2,4.95,7.36,7.36,0,0,1-5.27,1.86,7.52,7.52,0,0,1-4.78-1.49A6,6,0,0,1,918,447h2.63a3.8,3.8,0,0,0,1.49,2.39,4.92,4.92,0,0,0,2.92.85,4.59,4.59,0,0,0,3.37-1.19,4.37,4.37,0,0,0,1.19-3.21v-3a5,5,0,0,1-2.09,1.9,7.29,7.29,0,0,1-6.6-.23,6,6,0,0,1-2.34-2.51,7.76,7.76,0,0,1-.82-3.6,8,8,0,0,1,.83-3.66,6.22,6.22,0,0,1,2.38-2.57,6.73,6.73,0,0,1,3.56-.93,6.39,6.39,0,0,1,3.1.72,5.14,5.14,0,0,1,2.07,2l.16-2.31Zm-4.09,10.07a5.21,5.21,0,0,0,0-6.78,4.28,4.28,0,0,0-3.3-1.36,4.06,4.06,0,0,0-3.21,1.36,5,5,0,0,0-1.19,3.42,4.88,4.88,0,0,0,1.2,3.39,4.16,4.16,0,0,0,3.2,1.33A4.32,4.32,0,0,0,928.15,441.79Z" transform="translate(-366.32 -307.83)"/><path class="cls-2" d="M946.54,445a7.63,7.63,0,0,1-4.36,1.27,7.42,7.42,0,0,1-3.78-.95,6.49,6.49,0,0,1-2.54-2.65,8.26,8.26,0,0,1-.9-3.93,8.15,8.15,0,0,1,.91-3.91,6.45,6.45,0,0,1,2.54-2.61,7.26,7.26,0,0,1,3.68-.92,7.13,7.13,0,0,1,3.54.85,6.09,6.09,0,0,1,2.37,2.38,7,7,0,0,1,.86,3.48,7.22,7.22,0,0,1-.13,1.61H937.59a4.46,4.46,0,0,0,1.33,3.24,4.52,4.52,0,0,0,3.26,1.21,5,5,0,0,0,2.58-.66,3.38,3.38,0,0,0,1.53-1.77h2.6A5.51,5.51,0,0,1,946.54,445Zm-.38-7.31a4.15,4.15,0,0,0-1.16-3,4,4,0,0,0-2.94-1.12,4.45,4.45,0,0,0-3.15,1.12,4,4,0,0,0-1.29,3Z" transform="translate(-366.32 -307.83)"/><path class="cls-2" d="M958.21,433.93h-2.79v11.95h-2.66V433.93H950v-2.21h2.76V428h2.66v3.76h2.79Z" transform="translate(-366.32 -307.83)"/><path class="cls-2" d="M960.55,423.85h2.67v9.8a4.31,4.31,0,0,1,1.88-1.72,5.78,5.78,0,0,1,2.68-.63,5,5,0,0,1,3.82,1.53,6.09,6.09,0,0,1,1.41,4.28v8.77h-2.66v-8.15a4.28,4.28,0,0,0-.92-3.1,3.17,3.17,0,0,0-2.33-.92,4.09,4.09,0,0,0-2.74,1,3.5,3.5,0,0,0-1.14,2.8v8.39h-2.67Z" transform="translate(-366.32 -307.83)"/><path class="cls-2" d="M987.32,445a7.61,7.61,0,0,1-4.36,1.27,7.42,7.42,0,0,1-3.78-.95,6.55,6.55,0,0,1-2.54-2.65,8.26,8.26,0,0,1-.9-3.93,8.15,8.15,0,0,1,.91-3.91,6.52,6.52,0,0,1,2.54-2.61,7.26,7.26,0,0,1,3.68-.92,7.08,7.08,0,0,1,3.54.85,6.12,6.12,0,0,1,2.38,2.38,7.06,7.06,0,0,1,.85,3.48,7.22,7.22,0,0,1-.13,1.61H978.37a4.35,4.35,0,0,0,4.59,4.45,4.93,4.93,0,0,0,2.58-.66,3.38,3.38,0,0,0,1.53-1.77h2.6A5.47,5.47,0,0,1,987.32,445Zm-.38-7.31a4.11,4.11,0,0,0-1.16-3,4,4,0,0,0-2.94-1.12,4.45,4.45,0,0,0-3.15,1.12,4,4,0,0,0-1.29,3Z" transform="translate(-366.32 -307.83)"/><path class="cls-2" d="M1000.06,431.72V434a5.21,5.21,0,0,0-1-.07,3.78,3.78,0,0,0-3,1.15,4.54,4.54,0,0,0-1,3.16v7.64h-2.67V431.72h2.35l.32,2.15a3,3,0,0,1,1.35-1.68,4.41,4.41,0,0,1,2.31-.59A7.29,7.29,0,0,1,1000.06,431.72Z" transform="translate(-366.32 -307.83)"/><path class="cls-2" d="M848.78,424.88a1.91,1.91,0,0,0-1.41-.54,2,2,0,0,0-1.43.55,1.83,1.83,0,0,0-.56,1.35,1.9,1.9,0,0,0,.56,1.39,1.94,1.94,0,0,0,1.43.57,1.85,1.85,0,0,0,1.41-.57,1.89,1.89,0,0,0,.55-1.39A1.81,1.81,0,0,0,848.78,424.88Z" transform="translate(-366.32 -307.83)"/><polygon class="cls-2" points="477.11 123.89 474.36 123.89 474.36 120.13 471.66 120.13 471.66 123.89 468.9 123.89 468.9 126.1 471.66 126.1 471.66 138.05 474.36 138.05 474.36 126.1 477.11 126.1 477.11 123.89"/><polygon class="cls-2" points="479.71 126.1 479.71 138.05 482.37 138.05 482.37 123.89 479.7 123.89 479.71 126.1"/><path class="cls-2" d="M578.64,336.88c10.57,0,19.26,3.16,26.08,9.38s10.17,14.22,10.17,24c0,10-3.36,18.08-10.17,24.4S589.21,404,578.64,404h-27V336.88Zm0,52.15a19,19,0,0,0,13.73-5.33,18.29,18.29,0,0,0,5.53-13.44,17.26,17.26,0,0,0-5.53-13,19,19,0,0,0-13.73-5.33H568.37V389Z" transform="translate(-366.32 -307.83)"/><path class="cls-2" d="M670.2,384.78H636.13c1.48,5.14,5.13,7.71,10.76,7.71,3.46,0,5.83-1.19,7.31-3.46h15.91c-2.37,9.88-11.56,16.1-23.41,16.1-7.81,0-14.13-2.37-19-7s-7.21-10.67-7.21-18.08,2.37-13.33,7-18,11-7,18.57-7a24.31,24.31,0,0,1,17.49,6.72c4.64,4.44,6.91,10.17,6.91,17.28A40,40,0,0,1,670.2,384.78ZM636,375.4h19.46q-1.34-8-9.48-8C640.67,367.4,637.31,370.06,636,375.4Z" transform="translate(-366.32 -307.83)"/><path class="cls-2" d="M725.22,362.46a24.37,24.37,0,0,1,7,17.68,24.84,24.84,0,0,1-7,17.88,22.42,22.42,0,0,1-16.79,7.21,24.38,24.38,0,0,1-13-3.56V404h-16.1V333.91h16.1V358.8a24.37,24.37,0,0,1,13-3.55A22.42,22.42,0,0,1,725.22,362.46Zm-8.69,17.68a11.83,11.83,0,0,0-3.26-8.4,10.38,10.38,0,0,0-8-3.45,12.73,12.73,0,0,0-9.88,4.44v15a12.68,12.68,0,0,0,9.88,4.34C711.69,392.09,716.53,386.86,716.53,380.14Z" transform="translate(-366.32 -307.83)"/><path class="cls-2" d="M789.92,404h-16v-3.16a21.37,21.37,0,0,1-13.14,4.65q-9.18,0-14.82-5.93c-3.75-4-5.63-9.29-5.63-16.1V356.14h16V381c0,6.62,3.36,10.07,8.79,10.07,3.07,0,5.93-1.58,8.8-4.74V356.14h16Z" transform="translate(-366.32 -307.83)"/><path class="cls-2" d="M844.74,360.68q5.63,5.93,5.63,16V404h-16V379.25c0-6.62-3.27-10.07-8.8-10.07-3.06,0-5.92,1.58-8.69,4.74V404h-16.1v-47.9h16.1v3.16A21.36,21.36,0,0,1,830,354.66C836,354.66,841,356.63,844.74,360.68Z" transform="translate(-366.32 -307.83)"/><path class="cls-2" d="M876.74,394.56V404h-16.1V333.91h16.1V374l16.59-17.88H912.4l-18.18,19.55L914,404H894.81l-11.45-16.59Z" transform="translate(-366.32 -307.83)"/><path class="cls-2" d="M920.48,399.81a5,5,0,0,1,5.08-4.9,4.93,4.93,0,1,1,0,9.86A5,5,0,0,1,920.48,399.81Z" transform="translate(-366.32 -307.83)"/><path class="cls-2" d="M964.05,391.87H942.42c1.05,3.54,3.53,5.27,7.44,5.27q3.63,0,5-2.23h9c-1.55,5.7-7.19,9.36-14.2,9.36a15.83,15.83,0,0,1-11.53-4.4,16.27,16.27,0,0,1-.06-22.19,15.59,15.59,0,0,1,11.47-4.4A14.14,14.14,0,0,1,960,377.43a14.48,14.48,0,0,1,4.22,10.73A25.62,25.62,0,0,1,964.05,391.87Zm-21.75-6h13.39a6,6,0,0,0-6.39-5.51C945.58,380.35,943.23,382.21,942.3,385.86Z" transform="translate(-366.32 -307.83)"/><path class="cls-2" d="M1000.06,403.59h-8.61v-2.11a13.19,13.19,0,0,1-8.49,3,12.33,12.33,0,0,1-9.49-3.91c-2.35-2.6-3.53-6.07-3.53-10.35V373.9h8.62v15.56c0,4.71,2.35,7.25,6.38,7.25q3.43,0,6.51-3.72V373.9h8.61Z" transform="translate(-366.32 -307.83)"/><rect class="cls-1" width="31.98" height="31.98"/></svg>