<svg xmlns="http://www.w3.org/2000/svg" width="117" height="99" viewBox="0 0 117 99" fill="none">
  <g>
    <path d="M164.323 -27.801C174.726 -38.2099 174.726 -55.0851 164.323 -65.4908C153.92 -75.8965 137.054 -75.8997 126.654 -65.4908C124.593 -63.4282 122.947 -61.1126 121.705 -58.6433C122.57 -61.2696 123.043 -64.072 123.043 -66.9865C123.043 -81.7062 111.117 -93.6396 96.405 -93.6396C81.6935 -93.6396 69.7699 -81.7062 69.7699 -66.9865C69.7699 -64.072 70.2437 -61.2696 71.1079 -58.6433C69.8628 -61.1094 68.2175 -63.4282 66.1593 -65.4908C55.7562 -75.8997 38.8904 -75.8997 28.4905 -65.4908C18.0907 -55.0819 18.0875 -38.2067 28.4905 -27.801C30.5519 -25.7384 32.8662 -24.0922 35.3342 -22.8495C32.7094 -23.7143 29.9086 -24.1883 26.9957 -24.1883C12.2841 -24.1883 0.357422 -12.2549 0.357422 2.46489C0.357422 17.1847 12.2841 29.1149 26.9957 29.1149C29.9086 29.1149 32.7094 28.6409 35.3342 27.7761C32.8662 29.022 30.5519 30.6682 28.4905 32.7276C18.0875 43.1364 18.0875 60.0117 28.4905 70.4174C38.8936 80.8231 55.7594 80.8263 66.1593 70.4174C68.2207 68.3548 69.866 66.0392 71.1079 63.5699C70.2437 66.1962 69.7699 68.9985 69.7699 71.913C69.7699 86.6296 81.6967 98.563 96.405 98.563C111.113 98.563 123.043 86.6296 123.043 71.913C123.043 68.9953 122.57 66.193 121.705 63.5699C122.95 66.036 124.596 68.3548 126.654 70.4174C137.057 80.8263 153.923 80.8263 164.323 70.4174C174.723 60.0085 174.726 43.1332 164.323 32.7276C153.92 22.3219 137.054 22.3187 126.654 32.7276C119.298 40.0874 117.15 50.6821 120.201 59.9348C115.816 51.233 106.811 45.2631 96.4082 45.2631C86.0051 45.2631 77.0009 51.233 72.6156 59.9348C75.6661 50.6789 73.5183 40.0874 66.1625 32.7276C58.8067 25.3677 48.218 23.2186 38.9704 26.2708C47.6674 21.8831 53.634 12.8738 53.634 2.46489C53.634 -7.944 47.6674 -16.9565 38.9704 -21.3411C48.2212 -18.2888 58.8067 -20.4379 66.1625 -27.7978C73.5183 -35.1577 75.6661 -45.7523 72.6156 -55.005C77.0009 -46.3032 86.0051 -40.3333 96.4082 -40.3333C106.811 -40.3333 115.819 -46.3032 120.201 -55.005C117.15 -45.7491 119.298 -35.1577 126.654 -27.7978C137.057 -17.3889 153.923 -17.3889 164.323 -27.7978V-27.801Z" fill="white"/>
    <path d="M106.771 -8.38781C110.503 -4.65341 116.553 -4.65341 120.285 -8.38781C124.018 -12.1222 124.018 -18.1754 120.285 -21.9098C116.556 -25.6442 110.503 -25.6442 106.771 -21.9098C106.009 -21.1475 105.411 -20.286 104.959 -19.37C105.289 -20.3372 105.478 -21.3685 105.478 -22.4478C105.478 -27.7291 101.198 -32.008 95.923 -32.008C90.6479 -32.008 86.3682 -27.7259 86.3682 -22.4478C86.3682 -21.3685 86.5539 -20.3372 86.8836 -19.37C86.4322 -20.286 85.8336 -21.1475 85.0718 -21.9098C81.3427 -25.6442 75.2897 -25.6442 71.5574 -21.9098C67.8251 -18.1786 67.8251 -12.1222 71.5574 -8.38781C72.3193 -7.62555 73.1835 -7.02665 74.099 -6.57507C73.1323 -6.90495 72.1016 -7.0907 71.0197 -7.0907C65.7413 -7.0907 61.4648 -2.80864 61.4648 2.46947C61.4648 7.74758 65.7445 12.0296 71.0197 12.0296C72.0984 12.0296 73.1291 11.8439 74.099 11.514C73.1835 11.9656 72.3193 12.5645 71.5574 13.3267C67.8251 17.0611 67.8251 23.1143 71.5574 26.8487C75.2897 30.5831 81.3395 30.5831 85.0718 26.8487C85.8369 26.0865 86.4354 25.2217 86.8836 24.3057C86.5539 25.273 86.3682 26.3042 86.3682 27.3868C86.3682 32.6681 90.6479 36.9469 95.923 36.9469C101.198 36.9469 105.478 32.6649 105.478 27.3868C105.478 26.3074 105.292 25.2762 104.962 24.3057C105.414 25.2249 106.012 26.0865 106.774 26.8487C110.507 30.5831 116.556 30.5831 120.289 26.8487C124.021 23.1143 124.021 17.0611 120.289 13.3267C116.56 9.59556 110.507 9.59556 106.774 13.3267C104.105 16.001 103.356 19.8571 104.508 23.204C102.956 20.0237 99.7001 17.8234 95.923 17.8234C92.1459 17.8234 88.8905 20.0205 87.3381 23.204C88.4904 19.8571 87.7414 15.9978 85.0686 13.3267C82.399 10.6557 78.5419 9.90623 75.1969 11.0592C78.3754 9.50909 80.5745 6.2519 80.5745 2.46947C80.5745 -1.31296 78.3786 -4.56694 75.1969 -6.12027C78.5419 -4.96729 82.399 -5.71672 85.0686 -8.38781C87.7414 -11.0589 88.4904 -14.9182 87.3381 -18.2651C88.8873 -15.0847 92.1427 -12.8845 95.923 -12.8845C99.7033 -12.8845 102.956 -15.0815 104.508 -18.2651C103.356 -14.915 104.101 -11.0589 106.771 -8.38781Z" fill="white"/>
  </g>
</svg>