<svg width="199" height="56" viewBox="0 0 199 56" fill="none" xmlns="http://www.w3.org/2000/svg">
<path d="M72.729 3.62562H68.4532V24.4138H82.1871V20.5123H72.729V3.62562Z" fill="#005961"/>
<path d="M96.8472 19.6256C96.2955 20.1182 95.6453 20.5123 94.9556 20.7882C94.3251 21.0049 93.6748 21.1232 93.0049 21.1232C91.6847 21.1232 90.5812 20.7882 89.7339 20.1379C88.867 19.4877 88.2955 18.5222 88.1182 17.4581H99.3891L99.4285 16.1774C99.4876 14.7783 99.1921 13.399 98.5418 12.1774C97.3004 9.81282 94.8177 8.33499 92.1379 8.3744C90.6798 8.35469 89.261 8.70937 88 9.43844C86.8177 10.1478 85.8325 11.1527 85.1822 12.3547C84.4729 13.6749 84.1182 15.1527 84.1576 16.6503C84.1379 18.1084 84.4926 19.5468 85.2019 20.8079C85.9113 22.0099 86.9359 22.9951 88.1576 23.665C89.4187 24.3547 90.8965 24.7094 92.5911 24.7094C93.7142 24.7094 94.8177 24.4926 95.862 24.0985C96.9458 23.7044 97.931 23.1133 98.7783 22.3645L96.8472 19.6256ZM92.197 11.8818C93.0443 11.8621 93.8719 12.1576 94.5221 12.7094C95.1527 13.2217 95.5271 13.9902 95.5665 14.798V14.9163H88.1379C88.6108 12.8867 89.9704 11.8818 92.197 11.8818Z" fill="#005961"/>
<path d="M106.699 8.72911H102.64V24.3941H106.699V8.72911Z" fill="#005961"/>
<path d="M104.67 5.47776C105.438 5.47776 106.049 5.26101 106.502 4.84722C106.956 4.43343 107.192 3.8423 107.172 3.25116C107.172 2.5418 106.956 1.99008 106.522 1.59599C106.089 1.2019 105.478 1.00486 104.69 1.00486C103.901 1.00486 103.271 1.22161 102.837 1.6354C102.384 2.04919 102.148 2.66003 102.167 3.27087C102.128 3.8817 102.384 4.49254 102.837 4.90633C103.251 5.28072 103.882 5.47776 104.67 5.47776Z" fill="#005961"/>
<path d="M123.842 21.8325L121.616 19.1527C121.123 19.7438 120.532 20.2561 119.842 20.6305C119.192 20.9852 118.443 21.1626 117.714 21.1428C116.946 21.1626 116.177 20.9458 115.507 20.532C114.857 20.1379 114.325 19.5665 113.97 18.8768C113.596 18.1478 113.399 17.3399 113.399 16.532C113.379 15.7241 113.576 14.9162 113.951 14.1872C114.305 13.5172 114.818 12.9458 115.468 12.532C116.138 12.1182 116.906 11.9015 117.675 11.9212C118.463 11.9212 119.231 12.1379 119.901 12.532C120.571 12.8867 121.163 13.399 121.616 14.0098L123.842 11.33C123.153 10.3645 122.207 9.61576 121.123 9.16256C119.901 8.63054 118.601 8.37438 117.281 8.39408C115.882 8.37438 114.502 8.74876 113.281 9.45812C112.098 10.1675 111.133 11.1724 110.483 12.3744C109.123 14.9951 109.123 18.1084 110.483 20.7093C111.133 21.9113 112.098 22.9162 113.281 23.6256C114.483 24.3547 115.862 24.7093 117.281 24.6896C118.581 24.6896 119.862 24.4335 121.044 23.9015C122.148 23.468 123.113 22.7389 123.842 21.8325Z" fill="#005961"/>
<path d="M140.552 22.3645L138.581 19.6256C138.029 20.1182 137.379 20.5123 136.69 20.7882C136.079 21.0049 135.409 21.1232 134.759 21.1232C133.438 21.1232 132.335 20.7882 131.468 20.1379C130.601 19.4877 130.029 18.5222 129.852 17.4581H141.123L141.162 16.1774C141.222 14.7783 140.926 13.399 140.296 12.1774C139.054 9.81282 136.571 8.33499 133.892 8.3744C132.433 8.35469 131.015 8.70937 129.754 9.43844C128.571 10.1478 127.586 11.1527 126.936 12.3547C126.227 13.6749 125.872 15.1527 125.911 16.6503C125.892 18.1084 126.246 19.5468 126.956 20.8079C127.665 22.0099 128.69 22.9951 129.911 23.665C131.172 24.3547 132.65 24.7094 134.345 24.7094C135.468 24.7094 136.571 24.4926 137.616 24.0985C138.719 23.7044 139.704 23.1133 140.552 22.3645ZM133.951 11.8818C134.798 11.8621 135.626 12.1576 136.276 12.7094C136.906 13.2217 137.3 13.9705 137.34 14.798V14.9163H129.911C130.364 12.8867 131.724 11.8818 133.951 11.8818Z" fill="#005961"/>
<path d="M151.369 21.2217C150.936 21.5172 150.404 21.6552 149.892 21.6355C149.103 21.6355 148.335 21.4778 147.606 21.202C146.837 20.9064 146.148 20.4138 145.596 19.7832L143.034 21.9507C143.763 22.8374 144.69 23.5468 145.773 23.9803C146.995 24.4729 148.315 24.7094 149.635 24.6896C150.719 24.7094 151.783 24.4926 152.788 24.0788C153.675 23.6847 154.424 23.0739 154.995 22.3054C155.547 21.5566 155.823 20.6699 155.803 19.7438C155.803 18.601 155.468 17.6749 154.798 16.9852C154.029 16.1773 152.709 15.5271 150.818 15.0345C149.419 14.6601 148.512 14.3251 148.118 14.0493C147.724 13.8128 147.488 13.3793 147.468 12.9261C147.468 11.9409 148.177 11.4483 149.596 11.4483C150.286 11.468 150.975 11.6453 151.606 11.9606C152.295 12.2956 152.946 12.7291 153.517 13.2414L155.724 10.8374C154.956 10.069 154.01 9.45813 152.985 9.06404C151.882 8.63054 150.699 8.39409 149.517 8.41379C148.493 8.39409 147.488 8.61084 146.542 9.00492C145.675 9.3596 144.926 9.93103 144.335 10.6601C143.783 11.3498 143.488 12.2167 143.507 13.1034C143.468 14.1872 143.862 15.2315 144.591 16.0394C145.419 16.9261 146.837 17.6355 148.847 18.1478C150.207 18.5025 151.054 18.798 151.409 19.0345C151.744 19.2709 151.961 19.665 151.941 20.0788C151.961 20.532 151.744 20.9655 151.369 21.2217Z" fill="#005961"/>
<path d="M164.433 24.4138V12.3941H167.724V8.72908H164.433V4.72908H160.394V8.72908H157.419V12.3941H160.394V24.4138H164.433Z" fill="#005961"/>
<path d="M181.005 24.0985C182.089 23.7044 183.074 23.1133 183.921 22.3645L181.951 19.6256C181.399 20.1182 180.749 20.5123 180.059 20.7882C179.428 21.0049 178.778 21.1232 178.108 21.1232C176.788 21.1232 175.685 20.7882 174.818 20.1379C173.951 19.4877 173.379 18.5222 173.202 17.4581H184.473L184.512 16.1774C184.571 14.7783 184.276 13.399 183.645 12.1774C182.404 9.81282 179.921 8.33499 177.241 8.3744C175.783 8.35469 174.364 8.70937 173.103 9.43844C171.921 10.1478 170.936 11.1527 170.286 12.3547C169.576 13.6749 169.222 15.1527 169.261 16.6503C169.241 18.1084 169.596 19.5468 170.305 20.8079C171.015 22.0099 172.039 22.9951 173.261 23.665C174.522 24.3547 176 24.7094 177.675 24.7094C178.837 24.7094 179.961 24.4926 181.005 24.0985ZM177.3 11.8818C178.148 11.8621 178.995 12.1576 179.645 12.7094C180.276 13.2217 180.65 13.9902 180.69 14.798V14.9163H173.261C173.714 12.8867 175.074 11.8818 177.3 11.8818Z" fill="#005961"/>
<path d="M197.359 8.47293C197.025 8.41382 196.709 8.39411 196.374 8.39411C195.428 8.39411 194.502 8.68968 193.714 9.2217C192.887 9.75372 192.197 10.4631 191.685 11.3104L191.626 8.72909H187.704V24.3941H191.763V16.2168C191.724 15.271 192.098 14.3646 192.749 13.7143C193.399 13.0641 194.286 12.7094 195.192 12.7291C195.527 12.7291 195.862 12.7685 196.197 12.8473C196.493 12.9064 196.768 13.0049 197.025 13.1429L198.128 8.68968C197.892 8.59116 197.616 8.53204 197.359 8.47293Z" fill="#005961"/>
<path d="M72.1182 37.931C72.9261 37.4384 73.8522 37.202 74.798 37.202C76.2167 37.202 77.5763 37.8719 78.8768 39.1921L80.5123 37.4975C80.1182 36.9458 79.6059 36.4729 79.0541 36.0788C77.7931 35.2118 76.3152 34.7586 74.798 34.7586C72.7093 34.7389 70.7192 35.5862 69.2807 37.1034C67.8029 38.6404 66.995 40.7093 67.0147 42.8571C66.995 44.335 67.33 45.7931 68 47.1133C69.261 49.5763 71.8423 51.1133 74.6009 51.0345C75.3497 51.0345 76.0985 50.9359 76.8078 50.7586C77.5172 50.5813 78.1872 50.3054 78.8177 49.9704C79.3497 49.6946 79.8423 49.3005 80.2364 48.867L79.0147 46.8768C78.5024 47.4088 77.8719 47.8423 77.2019 48.1182C76.5123 48.4138 75.7635 48.5714 75.0147 48.5714C74.0098 48.5911 73.0246 48.3547 72.1379 47.862C71.33 47.4088 70.6601 46.7192 70.2069 45.8916C69.7339 44.9655 69.4975 43.9212 69.5172 42.8768C69.4975 41.8719 69.7339 40.867 70.2069 39.9606C70.6404 39.1133 71.3103 38.4236 72.1182 37.931Z" fill="#005961"/>
<path d="M85.7537 38.8768H83.4088V50.798H85.7537V38.8768Z" fill="#005961"/>
<path d="M84.5517 33.2808C84.1379 33.2611 83.7241 33.399 83.4088 33.6946C83.0542 34.0098 82.8965 34.4631 82.9359 34.936C83.0147 35.7438 83.7438 36.3153 84.5517 36.2365C84.9655 36.2562 85.3793 36.1182 85.6945 35.8227C86.0492 35.5074 86.2069 35.0542 86.1674 34.5813C86.0689 33.7734 85.3596 33.202 84.5517 33.2808Z" fill="#005961"/>
<path d="M93.1034 35.8227H90.7783V38.8769H88.2955V41.1429H90.7783V50.798H93.1034V41.1429H95.8817V38.8769H93.1034V35.8227Z" fill="#005961"/>
<path d="M104.335 47.468L104 48.4138C103.882 48.0591 103.783 47.7832 103.704 47.6256L99.9803 38.8571H97.261L102.798 51.3498L100.768 56H103.291L105.3 50.7783L110.207 38.8571H107.429L104.335 47.468Z" fill="#005961"/>
<path d="M124.768 37.931C125.576 37.4384 126.502 37.202 127.448 37.202C128.867 37.202 130.227 37.8719 131.547 39.1921L133.182 37.4975C132.788 36.9458 132.276 36.4729 131.724 36.0788C128.63 33.9901 124.493 34.4039 121.931 37.1034C120.453 38.6404 119.645 40.7093 119.665 42.8571C119.645 44.335 119.98 45.7931 120.65 47.1133C121.911 49.5763 124.493 51.1133 127.251 51.0345C128 51.0345 128.729 50.9359 129.458 50.7389C130.148 50.5616 130.837 50.3054 131.468 49.9507C132 49.6749 132.493 49.2808 132.887 48.8473L131.665 46.8571C131.153 47.3891 130.522 47.8226 129.852 48.0985C129.163 48.3941 128.414 48.5517 127.665 48.5517C126.66 48.5714 125.675 48.335 124.788 47.8424C123.98 47.3891 123.31 46.6995 122.857 45.8719C122.384 44.9458 122.128 43.9015 122.167 42.8571C122.148 41.8522 122.384 40.8473 122.877 39.9409C123.31 39.1133 123.961 38.4236 124.768 37.931Z" fill="#005961"/>
<path d="M143.724 39.4285C141.793 38.3448 139.428 38.3448 137.497 39.4285C136.591 39.9605 135.842 40.7093 135.33 41.6354C134.266 43.6255 134.266 46.0295 135.33 48.0196C135.842 48.926 136.591 49.6945 137.497 50.2265C138.443 50.7782 139.527 51.0541 140.611 51.0344C141.695 51.0541 142.778 50.7782 143.704 50.2265C144.611 49.6945 145.36 48.9457 145.872 48.0196C146.936 46.0295 146.936 43.6255 145.872 41.6354C145.379 40.7093 144.63 39.9605 143.724 39.4285ZM143.842 46.8965C143.547 47.4876 143.094 47.9999 142.522 48.3546C141.951 48.7093 141.281 48.9063 140.611 48.8866C139.941 48.9063 139.271 48.7093 138.699 48.3546C138.128 47.9999 137.675 47.5073 137.379 46.8965C136.768 45.5763 136.768 44.059 137.379 42.7388C137.675 42.1477 138.148 41.6354 138.699 41.2807C139.882 40.5714 141.34 40.5714 142.522 41.261C143.094 41.6157 143.547 42.1083 143.842 42.6994C144.177 43.3497 144.335 44.0787 144.295 44.8078C144.335 45.5369 144.177 46.2462 143.842 46.8965Z" fill="#005961"/>
<path d="M156.985 46.0492C157.005 46.8374 156.709 47.6059 156.138 48.1576C155.566 48.7093 154.778 49.0049 153.99 48.9852C153.103 48.9852 152.433 48.6699 151.941 48.0788C151.448 47.4876 151.212 46.66 151.212 45.596V38.8768H148.867V46.2265C148.867 47.7044 149.241 48.8669 150.01 49.7339C150.759 50.6009 151.783 51.0344 153.044 51.0344C153.852 51.0344 154.64 50.8374 155.35 50.4433C156.02 50.0886 156.591 49.5566 157.005 48.9063V50.8177H159.35V38.8965H157.005V46.0492H156.985Z" fill="#005961"/>
<path d="M168.453 38.6206C167.665 38.6206 166.896 38.8374 166.207 39.2315C165.537 39.5862 164.965 40.0985 164.532 40.729V38.8571H162.187V50.7783H164.532V43.5467C164.532 43.0344 164.67 42.5418 164.946 42.1083C165.222 41.6748 165.616 41.3201 166.069 41.1034C166.562 40.8472 167.113 40.729 167.665 40.729C169.34 40.6305 170.187 41.6157 170.187 43.665V50.7783H172.532V43.5073C172.552 40.2561 171.192 38.6206 168.453 38.6206Z" fill="#005961"/>
<path d="M178.699 41.2611C179.291 40.9064 179.961 40.7093 180.63 40.729C181.281 40.7487 181.931 40.9261 182.483 41.2808C183.074 41.596 183.606 42.0689 184 42.6207L185.281 41.0443C184.808 40.2758 184.118 39.665 183.291 39.2906C182.384 38.8571 181.399 38.6404 180.394 38.6404C179.35 38.6207 178.325 38.9162 177.438 39.4679C176.571 40.0197 175.862 40.7881 175.369 41.6945C174.364 43.665 174.364 46.0295 175.369 48C175.862 48.9064 176.571 49.6748 177.438 50.2266C178.325 50.7783 179.35 51.0541 180.394 51.0344C181.36 51.0344 182.325 50.798 183.192 50.3842C184.02 50.0098 184.729 49.4384 185.261 48.7093L183.961 47.1133C182.956 48.3152 181.852 48.9261 180.63 48.9261C179.961 48.9261 179.291 48.7487 178.719 48.3744C178.148 48 177.675 47.5074 177.34 46.9162C176.985 46.2857 176.808 45.5566 176.808 44.8473C176.788 44.1182 176.965 43.4088 177.3 42.7586C177.655 42.128 178.128 41.6157 178.699 41.2611Z" fill="#005961"/>
<path d="M190.286 38.8768H187.941V50.798H190.286V38.8768Z" fill="#005961"/>
<path d="M189.064 33.2808C188.65 33.2611 188.236 33.399 187.921 33.6946C187.566 34.0098 187.409 34.4631 187.448 34.936C187.527 35.7438 188.256 36.3153 189.064 36.2365C189.478 36.2562 189.892 36.1182 190.207 35.8227C190.561 35.5074 190.719 35.0542 190.68 34.5813C190.601 33.7734 189.872 33.202 189.064 33.2808Z" fill="#005961"/>
<path d="M193.478 50.798H195.823V33.9902H193.478V50.798Z" fill="#005961"/>
<path d="M28.1182 22.5024C24.2561 22.5024 21.1231 25.6354 21.1231 29.4975C21.1231 33.3595 24.2561 36.4925 28.1182 36.4925C31.9803 36.4925 35.1133 33.3595 35.1133 29.4975C35.0936 25.6354 31.9803 22.5024 28.1182 22.5024ZM32.7093 31.1723C31.7832 33.7142 28.9655 35.0147 26.4433 34.0886C23.9212 33.1625 22.601 30.3448 23.5271 27.8226C24.4532 25.3004 27.2709 23.9802 29.7931 24.9063C31.7241 25.6157 33.0049 27.4482 33.0049 29.4975C33.0049 30.0689 32.9064 30.6403 32.7093 31.1723Z" fill="#005961"/>
<path d="M42.6798 14.2069C38.8374 15.2315 38.5813 17.3793 37.734 18.798C37.6157 18.9951 37.4778 19.1527 37.3005 19.2906L37.2808 19.3103C37.1822 19.3694 37.0837 19.4286 36.9852 19.4877C36.0591 19.8621 34.8374 18.9359 34.8965 17.9704C34.8965 17.931 34.8965 17.8916 34.9162 17.8522C34.9359 17.7931 34.9556 17.7143 34.9753 17.6552L35.0148 17.5566L35.0345 17.5369C35.1133 17.3793 35.2118 17.2217 35.33 17.0837C36.4138 15.8424 38.3842 14.9557 38.1675 10.9754C37.931 6.62069 30.8965 1.97044 28.1182 0L27.3694 0.591133C24.2956 2.83744 18.3054 6.62069 18.069 10.9754C17.8522 14.9557 19.8227 15.8424 20.9064 17.1034C21.0443 17.2808 21.1625 17.4581 21.2414 17.6552C21.2414 17.6552 21.2414 17.6552 21.2414 17.6749C21.2808 17.7931 21.3005 17.8916 21.3005 18.0098C21.3793 19.133 19.8226 20.0788 18.9162 19.3497L18.8374 19.2906L18.8177 19.2709C18.6798 19.1527 18.5813 19.0148 18.4827 18.8571C17.6355 17.4384 17.399 15.2906 13.5369 14.266C9.32019 13.1428 2.71921 18.4039 0 20.4335L0.334975 21.3399C1.51724 24.9458 3.27093 31.8029 7.33005 33.3793C11.0542 34.8177 12.5123 33.202 14.0295 32.5714C14.2463 32.4926 14.463 32.4335 14.6798 32.4138C14.798 32.4138 14.9162 32.4335 15.0345 32.4532C16.1182 32.729 16.5517 34.5024 15.5665 35.133C15.5468 35.1527 15.5074 35.1724 15.4877 35.1921L15.4483 35.2118C15.2906 35.2906 15.133 35.3694 14.9557 35.4088C13.3399 35.7832 11.2315 35.3497 9.06403 38.6995C6.6995 42.3645 9.65517 50.266 10.7389 53.4778L11.7044 53.4384C15.5074 53.4187 22.5813 53.8916 25.3202 50.5024C27.8423 47.4088 26.7586 45.5369 26.6207 43.8817C26.601 43.665 26.6207 43.4285 26.6798 43.2118C26.7192 43.0936 26.7586 42.995 26.8177 42.8965C27.3497 42.0492 28.8867 42.0689 29.399 42.8965L29.4187 42.9359C29.4778 43.0148 29.4975 43.1133 29.5369 43.2118C29.5369 43.2512 29.5566 43.2709 29.5566 43.3103C29.5566 43.3497 29.5566 43.33 29.5566 43.3497C29.596 43.5271 29.596 43.7044 29.596 43.8817C29.4581 45.5172 28.3744 47.4088 30.8965 50.5024C33.6552 53.8916 42.0886 53.5172 45.4778 53.4778L45.734 52.5517C46.8965 48.9261 49.5172 42.3448 47.1527 38.6995C44.9852 35.3497 42.8571 35.8029 41.2611 35.4286C41.0443 35.3694 40.8473 35.2906 40.6502 35.1724H40.6305C40.532 35.1133 40.4532 35.0345 40.3744 34.9359C39.7241 34.1675 40.2364 32.729 41.1822 32.4729C41.2217 32.4729 41.2611 32.4532 41.3005 32.4532C41.3596 32.4532 41.4384 32.4335 41.4975 32.4532L41.6157 32.4729H41.6354C41.8128 32.4926 41.9901 32.532 42.1675 32.6108C43.6847 33.2611 45.1428 34.8571 48.867 33.4187C52.9261 31.8424 55.1921 23.7241 56.197 20.4729L55.4088 19.9409C52.3349 17.6158 46.8965 13.0837 42.6798 14.2069ZM51.9212 22.3645C51.1921 24.8079 49.9901 29.2611 47.4088 30.4433C46.5221 30.8374 45.5566 31.0148 44.5911 30.9359C42.5024 30.8965 41.7537 30.5024 40.6305 30.7389C38.3842 31.133 37.4778 34.2857 39.0542 35.7832L39.0936 35.8226C39.1133 35.8423 39.133 35.862 39.1527 35.8818C40.1379 36.7487 41.399 37.4187 41.8128 37.7537L41.7931 37.734C42.7586 38.3448 43.5665 38.9556 44.197 40.0985C45.734 42.8374 43.9409 46.995 43.1527 49.2611L42.9359 49.9507L42.2069 49.931C39.665 49.9901 35.0542 50.2266 33.1428 48.1379C32.4926 47.4285 32.0394 46.5616 31.8029 45.6157C31.1921 43.6059 31.33 42.798 30.7783 41.7931C29.7143 39.7832 26.4236 39.8818 25.4975 41.8522C25.4975 41.8719 25.4778 41.8916 25.4778 41.8916L25.4384 41.9901C24.9064 43.1921 24.6699 44.5911 24.4926 45.0837L24.5123 45.064C24.2364 46.1675 23.9015 47.1133 23.0148 48.0788C20.8867 50.4039 16.3941 49.9704 13.9901 49.9113L13.2611 49.931L13.0443 49.2414C12.197 46.8374 10.5419 42.5419 11.9409 40.0591C12.4138 39.2315 13.1034 38.5221 13.9113 38.0098C15.6256 36.8276 16.4532 36.6896 17.2217 35.8423C18.798 34.2069 17.6946 31.1133 15.5271 30.8374H15.3892C14.0887 30.7192 12.7094 30.8965 12.1576 30.8965C11.0148 30.9754 10.0098 30.9359 8.82758 30.4039C5.97044 29.1034 4.98522 24.6896 4.29556 22.3842L4.05911 21.6946L4.65024 21.2808C6.6798 19.7438 10.266 16.8276 13.0443 17.399C13.9901 17.5961 14.8571 18.0295 15.6059 18.6404C17.2611 19.9015 17.6355 20.6502 18.6995 21.1231C20.7488 22.1084 23.3497 20.1182 22.9359 17.9704C22.9359 17.9507 22.9359 17.931 22.9162 17.9113C22.9162 17.8916 22.8965 17.8522 22.8965 17.8325C22.6207 16.5517 21.9901 15.2709 21.8325 14.7586V14.7783C21.399 13.7143 21.1231 12.7488 21.2808 11.4483C21.6355 8.33497 25.5369 6.02955 27.5074 4.65024L28.0788 4.21675L28.6699 4.65024C30.7586 6.08867 34.6404 8.61083 34.9557 11.4286C35.0542 12.3941 34.9162 13.3596 34.5616 14.266C33.8719 16.2364 33.2808 16.8276 33.1428 17.9704C32.8276 20.2167 35.5468 22.069 37.4581 21.0246L37.5763 20.9458C38.6995 20.2759 39.7438 19.2906 40.1773 18.9951H40.1576C41.0246 18.266 41.8719 17.6946 43.1527 17.4384C46.2266 16.8079 49.6157 19.8029 51.5271 21.2611L52.1182 21.6749L51.9212 22.3645Z" fill="#005961"/>
<path d="M12.1379 30.8767C12.1577 30.8767 12.1577 30.8965 12.1379 30.8767C12.1577 30.8965 12.1577 30.8965 12.1379 30.8767Z" fill="#005961"/>
</svg>
